<svg preserveAspectRatio="none" width="100%" height="100%" overflow="visible" style="display: block;" viewBox="0 0 64 64" fill="none" xmlns="http://www.w3.org/2000/svg">
<g id="61acc50468c16c865e4a59003c2ca634" clip-path="url(#clip0_0_26)">
<g id="Vector">
</g>
<path id="Vector_2" d="M55.17 34.5H45.17V22.5C45.17 21.7044 44.8539 20.9413 44.2913 20.3787C43.7287 19.8161 42.9656 19.5 42.17 19.5C41.3744 19.5 40.6113 19.8161 40.0487 20.3787C39.4861 20.9413 39.17 21.7044 39.17 22.5V34.5H25.17V22.64C25.17 21.8443 24.8539 21.0813 24.2913 20.5187C23.7287 19.9561 22.9656 19.64 22.17 19.64C21.3744 19.64 20.6113 19.9561 20.0487 20.5187C19.4861 21.0813 19.17 21.8443 19.17 22.64V34.5H9.17C8.63957 34.5 8.13086 34.7107 7.75579 35.0858C7.38071 35.4609 7.17 35.9696 7.17 36.5V56.5C7.17 57.0304 7.38071 57.5391 7.75579 57.9142C8.13086 58.2893 8.63957 58.5 9.17 58.5H55.17C55.7004 58.5 56.2091 58.2893 56.5842 57.9142C56.9593 57.5391 57.17 57.0304 57.17 56.5V36.5C57.17 35.9696 56.9593 35.4609 56.5842 35.0858C56.2091 34.7107 55.7004 34.5 55.17 34.5ZM41.17 22.5C41.17 22.2348 41.2754 21.9804 41.4629 21.7929C41.6504 21.6054 41.9048 21.5 42.17 21.5C42.4352 21.5 42.6896 21.6054 42.8771 21.7929C43.0646 21.9804 43.17 22.2348 43.17 22.5V34.5H41.17V22.5ZM21.17 22.64C21.17 22.3748 21.2754 22.1204 21.4629 21.9329C21.6504 21.7454 21.9048 21.64 22.17 21.64C22.4352 21.64 22.6896 21.7454 22.8771 21.9329C23.0646 22.1204 23.17 22.3748 23.17 22.64V34.5H21.17V22.64ZM55.17 56.5H9.17V36.5H55.17V56.5ZM7.17 24H5.17C5.17529 19.0951 7.1261 14.3926 10.5944 10.9244C14.0626 7.4561 18.7651 5.50529 23.67 5.5V7.5C19.2956 7.50529 15.1018 9.24538 12.0086 12.3386C8.91538 15.4318 7.17529 19.6256 7.17 24Z" fill="var(--fill-0, black)" style="fill:black;fill-opacity:1;"/>
<path id="Vector_3" d="M14.17 24H12.17C12.1726 20.9508 13.3851 18.0273 15.5412 15.8712C17.6973 13.7151 20.6208 12.5026 23.67 12.5V14.5C21.1513 14.5026 18.7364 15.5044 16.9554 17.2854C15.1744 19.0664 14.1726 21.4813 14.17 24ZM59.17 24H57.17C57.1647 19.6256 55.4246 15.4318 52.3314 12.3386C49.2382 9.24538 45.0444 7.50529 40.67 7.5V5.5C45.5749 5.50529 50.2774 7.4561 53.7456 10.9244C57.2139 14.3926 59.1647 19.0951 59.17 24Z" fill="var(--fill-0, black)" style="fill:black;fill-opacity:1;"/>
<path id="Vector_4" d="M52.17 24H50.17C50.1674 21.4813 49.1656 19.0664 47.3846 17.2854C45.6036 15.5044 43.1887 14.5026 40.67 14.5V12.5C43.7192 12.5026 46.6427 13.7151 48.7988 15.8712C50.9549 18.0273 52.1674 20.9508 52.17 24ZM39.46 52.22L37.93 50.13L37.38 50.7V52.22H36V44.39H37.41V48.46C37.419 48.6165 37.419 48.7735 37.41 48.93V49.05L39.22 47.05H40.86L38.94 49.22L41.12 52.22H39.46ZM48.42 52.22V49.22C48.42 48.55 48.15 48.22 47.58 48.22C47.01 48.22 46.58 48.61 46.58 49.39V52.25H45.13V49.25C45.13 48.58 44.87 48.25 44.29 48.25C43.71 48.25 43.29 48.64 43.29 49.42V52.28H41.85V47H43.26V47.6C43.4157 47.3768 43.624 47.1953 43.8663 47.0714C44.1087 46.9476 44.3779 46.8853 44.65 46.89C44.9576 46.873 45.2635 46.9463 45.53 47.1008C45.7965 47.2554 46.012 47.4845 46.15 47.76C46.3393 47.4833 46.5951 47.2586 46.8939 47.1066C47.1927 46.9545 47.5249 46.8801 47.86 46.89C49.18 46.89 49.86 47.63 49.86 49.07V52.24L48.42 52.22ZM14.81 51.89L19.56 46.89C20.471 46.1159 21.0566 45.0268 21.2 43.84C21.2339 43.5877 21.2086 43.3311 21.1261 43.0903C21.0437 42.8495 20.9063 42.6312 20.7248 42.4527C20.5434 42.2741 20.3229 42.1403 20.0808 42.0617C19.8387 41.9832 19.5817 41.962 19.33 42C18.13 42 17.33 42.72 17 44.14L15.21 43.74C15.3799 42.7982 15.8584 41.9398 16.57 41.3C17.3437 40.6579 18.325 40.3202 19.33 40.35C20.3301 40.3114 21.3047 40.671 22.04 41.35C22.371 41.6745 22.6309 42.0644 22.8031 42.4948C22.9752 42.9252 23.0559 43.3867 23.04 43.85C22.9137 45.3912 22.1972 46.8242 21.04 47.85L19.1 49.85C18.9272 50.0247 18.7435 50.1884 18.55 50.34L18.25 50.57H23V52H14.8L14.81 51.89ZM26.05 50.75C25.5726 50.2187 25.2146 49.5913 25 48.91C24.4534 47.1856 24.4534 45.3344 25 43.61C25.2279 42.923 25.5995 42.2923 26.09 41.76C26.5242 41.3047 27.0464 40.9422 27.6248 40.6946C28.2032 40.4469 28.8258 40.3192 29.455 40.3192C30.0842 40.3192 30.7068 40.4469 31.2852 40.6946C31.8636 40.9422 32.3858 41.3047 32.82 41.76C33.304 42.2954 33.6718 42.9253 33.9 43.61C34.4466 45.3344 34.4466 47.1856 33.9 48.91C33.674 49.5927 33.3059 50.2199 32.82 50.75C32.3858 51.2053 31.8636 51.5678 31.2852 51.8154C30.7068 52.0631 30.0842 52.1908 29.455 52.1908C28.8258 52.1908 28.2032 52.0631 27.6248 51.8154C27.0464 51.5678 26.5242 51.2053 26.09 50.75H26.05ZM31.53 49.56C32.1718 48.5842 32.4773 47.4254 32.4 46.26C32.4803 45.0943 32.1745 43.9346 31.53 42.96C31.2796 42.6362 30.9583 42.374 30.5908 42.1937C30.2233 42.0133 29.8194 41.9195 29.41 41.9195C29.0006 41.9195 28.5967 42.0133 28.2292 42.1937C27.8617 42.374 27.5404 42.6362 27.29 42.96C26.6455 43.9346 26.3397 45.0943 26.42 46.26C26.3427 47.4254 26.6482 48.5842 27.29 49.56C27.5427 49.8804 27.8648 50.1394 28.232 50.3174C28.5991 50.4955 29.0019 50.588 29.41 50.588C29.8181 50.588 30.2209 50.4955 30.588 50.3174C30.9552 50.1394 31.2773 49.8804 31.53 49.56Z" fill="var(--fill-0, black)" style="fill:black;fill-opacity:1;"/>
</g>
<defs>
<clipPath id="clip0_0_26">
<rect width="64" height="64" fill="white" style="fill:white;fill-opacity:1;"/>
</clipPath>
</defs>
</svg>
