<svg preserveAspectRatio="none" width="100%" height="100%" overflow="visible" style="display: block;" viewBox="0 0 64 64" fill="none" xmlns="http://www.w3.org/2000/svg">
<g id="fdd93d46121e07c70594d0f98ff15179" clip-path="url(#clip0_0_17)">
<path id="Vector" d="M57.88 5.99914V57.7591H6.13V5.99914H57.88ZM58.14 3.86914H6.14C5.57416 3.86913 5.03136 4.09322 4.63032 4.49239C4.22927 4.89156 4.00264 5.43331 4 5.99914V57.7591C4.0026 58.3215 4.22648 58.8603 4.62321 59.2589C5.01994 59.6575 5.55764 59.8839 6.12 59.8891H57.88C58.4424 59.8839 58.9801 59.6575 59.3768 59.2589C59.7735 58.8603 59.9974 58.3215 60 57.7591V5.75914C60.0068 5.51256 59.9635 5.26716 59.8726 5.03785C59.7816 4.80854 59.645 4.6001 59.4711 4.42521C59.2971 4.25031 59.0894 4.1126 58.8606 4.02045C58.6318 3.9283 58.3866 3.88362 58.14 3.88914V3.86914Z" fill="var(--fill-0, black)" style="fill:black;fill-opacity:1;"/>
<path id="Vector_2" d="M5.32996 39.3906H58.61V41.5106H5.32996V39.3906Z" fill="var(--fill-0, black)" style="fill:black;fill-opacity:1;"/>
<path id="&#229;&#189;&#162;&#231;&#138;&#182;" d="M26 28.5105H16V27.5805L27.69 13.3105H27.82V26.8505H29.88V28.5105H27.88V31.8905H26V28.5105ZM19.07 27.0005C19.6 27.0005 20 26.9305 20.33 26.9305H25.9V19.4205C25.8922 19.0193 25.9156 18.6181 25.97 18.2205C25.97 18.0305 26.03 17.7605 26.03 17.5605L25.3 18.6205L19.73 25.7205C19.4546 26.0425 19.1425 26.3311 18.8 26.5805C18.67 26.7205 18.47 26.8505 18.34 26.9805L19.07 27.0005Z" fill="var(--fill-0, black)" style="fill:black;fill-opacity:1;"/>
<path id="&#229;&#189;&#162;&#231;&#138;&#182;_2" d="M28.16 32.1591H25.7V28.7691H15.75V27.4491L15.82 27.3791L27.69 13.1191H28.22V26.6491H30.22V28.7691H28.16V32.1591ZM26.23 31.6191H27.63V28.2391H29.68V27.1791H27.63V13.9091L16.21 27.6391V28.2391H26.21L26.23 31.6191ZM18.4 27.3091H18.27L18.07 27.2491V26.8491H18.27L18.67 26.5191C18.9908 26.265 19.2796 25.9729 19.53 25.6491L25.1 18.5591L25.83 17.4891L26.3 17.7591V18.2891C26.3 18.7491 26.23 19.1491 26.23 19.4791V27.2491H20.33C19.9092 27.2436 19.4884 27.2636 19.07 27.3091H18.4ZM25.7 18.5591L25.57 18.7491L20 25.9191L19.2 26.7191C19.66 26.7191 20.06 26.6491 20.33 26.6491H25.64V19.4191C25.64 19.2191 25.7 18.9991 25.7 18.5591Z" fill="var(--fill-0, black)" style="fill:black;fill-opacity:1;"/>
<path id="Vector_3" d="M33.4 13.7793H35.32V23.2693C35.339 23.6242 35.3155 23.98 35.25 24.3293C35.5854 23.607 35.9871 22.9174 36.45 22.2693L43.35 13.8493H45.47L38.9 21.9393L46.33 31.9393H44L37.76 23.3193L35.37 26.1693V31.9393H33.4V13.7793Z" fill="var(--fill-0, black)" style="fill:black;fill-opacity:1;"/>
<path id="&#229;&#189;&#162;&#231;&#138;&#182;_3" d="M46.86 32.16H43.86L37.69 23.73L35.57 26.25V32.16H33.2V13.51H35.65V23.07C35.85 22.74 36.12 22.4 36.32 22.07L43.32 13.51H46.17L39.41 21.87L46.86 32.16ZM44.08 31.62H45.74L38.64 21.94L45 14.11H43.48L36.65 22.47C36.1907 23.071 35.7889 23.7138 35.45 24.39L34.79 25.72L34.92 24.26C34.92 23.86 34.99 23.53 34.99 23.2V14H33.66V31.62H35.06V26.05L37.71 22.8L44.08 31.62Z" fill="var(--fill-0, black)" style="fill:black;fill-opacity:1;"/>
<path id="Vector_4" d="M20.39 51.8594C20.1622 51.6466 19.98 51.3897 19.8545 51.1044C19.729 50.819 19.6629 50.5111 19.66 50.1994C19.6857 49.5794 19.8945 48.9808 20.26 48.4794L22.19 45.6894H23.38L22.12 47.4794C22.0101 47.6516 21.8753 47.8066 21.72 47.9394L21.65 48.0094L21.52 48.1394C21.7821 47.9859 22.0768 47.8968 22.38 47.8794C22.6791 47.8626 22.9782 47.9131 23.2551 48.0274C23.5321 48.1416 23.7798 48.3166 23.98 48.5394C24.3924 48.9674 24.6281 49.5352 24.64 50.1294C24.6548 50.4354 24.6055 50.7411 24.4953 51.027C24.3851 51.3128 24.2164 51.5725 24 51.7894C23.7638 52.0182 23.4829 52.1958 23.1749 52.3111C22.8669 52.4264 22.5384 52.4769 22.21 52.4594C21.881 52.5039 21.5462 52.473 21.2309 52.369C20.9156 52.2651 20.6281 52.0908 20.39 51.8594ZM23.18 51.1994C23.3118 51.0691 23.4153 50.9131 23.4841 50.741C23.5529 50.569 23.5856 50.3846 23.58 50.1994C23.588 50.0139 23.5565 49.8288 23.4876 49.6564C23.4186 49.484 23.3138 49.3282 23.18 49.1994C23.046 49.0514 22.8824 48.9331 22.6998 48.8521C22.5172 48.7712 22.3197 48.7294 22.12 48.7294C21.9257 48.7226 21.7319 48.7545 21.5499 48.8232C21.368 48.8918 21.2015 48.9959 21.06 49.1294C20.8522 49.4445 20.7378 49.812 20.73 50.1894C20.725 50.3737 20.7568 50.5571 20.8238 50.7289C20.8908 50.9006 20.9915 51.0572 21.12 51.1894C21.2625 51.3237 21.4309 51.4276 21.6148 51.4947C21.7988 51.5617 21.9945 51.5906 22.19 51.5794C22.3721 51.5856 22.5535 51.5551 22.7236 51.4899C22.8937 51.4246 23.0489 51.3258 23.18 51.1994ZM26.37 51.7294C26.0936 51.4089 25.8676 51.0481 25.7 50.6594C25.5448 50.1669 25.4573 49.6555 25.44 49.1394C25.4236 48.6171 25.512 48.0969 25.7 47.6094C25.8163 47.1988 26.049 46.8306 26.37 46.5494C26.6273 46.2775 26.9374 46.0609 27.2813 45.9131C27.6252 45.7652 27.9957 45.6891 28.37 45.6894C28.7464 45.6748 29.1213 45.7445 29.4673 45.8933C29.8133 46.0421 30.1217 46.2662 30.37 46.5494C30.6271 46.8726 30.839 47.2292 31 47.6094C31.1545 48.1055 31.2419 48.6201 31.26 49.1394C31.2773 49.6584 31.1889 50.1756 31 50.6594C30.8862 51.0715 30.6572 51.4427 30.34 51.7294C30.0817 51.9999 29.7714 52.2155 29.4277 52.3633C29.0841 52.5111 28.7141 52.588 28.34 52.5894C27.601 52.5504 26.9011 52.2449 26.37 51.7294ZM29.62 50.9994C29.9992 50.4296 30.185 49.7529 30.15 49.0694C30.185 48.389 29.9991 47.7155 29.62 47.1494C29.4672 46.9613 29.2743 46.8097 29.0555 46.7055C28.8367 46.6014 28.5974 46.5473 28.355 46.5473C28.1127 46.5473 27.8734 46.6014 27.6546 46.7055C27.4357 46.8097 27.2429 46.9613 27.09 47.1494C26.711 47.7155 26.5251 48.389 26.56 49.0694C26.5251 49.7529 26.7109 50.4296 27.09 50.9994C27.2449 51.1843 27.4384 51.333 27.657 51.4351C27.8756 51.5371 28.1138 51.59 28.355 51.59C28.5962 51.59 28.8345 51.5371 29.0531 51.4351C29.2716 51.333 29.4652 51.1843 29.62 50.9994ZM32.67 49.1394H32V48.2794H32.67V47.6094C32.67 46.6094 33.13 46.1494 33.99 46.1494C34.2174 46.1388 34.4442 46.1811 34.6524 46.2731C34.8607 46.3651 35.0447 46.5042 35.19 46.6794L34.59 47.3494C34.4692 47.2129 34.3081 47.1184 34.13 47.0794C33.86 47.0794 33.66 47.2794 33.66 47.6794V48.3394H34.79V49.1394H33.66V52.4594H32.66L32.67 49.1394ZM35.67 48.2794H36.67V49.0694C36.7972 48.7947 37.0051 48.5653 37.2659 48.4117C37.5267 48.258 37.8281 48.1875 38.13 48.2094C38.392 48.2086 38.6513 48.2614 38.8921 48.3646C39.1328 48.4678 39.3499 48.6192 39.53 48.8094C39.7203 49.0254 39.8653 49.2775 39.9563 49.5506C40.0474 49.8237 40.0827 50.1124 40.06 50.3994C40.0789 50.9838 39.8793 51.5543 39.5 51.9994C39.3254 52.1938 39.1107 52.3481 38.8708 52.4517C38.6308 52.5553 38.3713 52.6057 38.11 52.5994C37.8152 52.6225 37.5201 52.5591 37.2608 52.417C37.0014 52.275 36.7892 52.0603 36.65 51.7994V54.6594H35.65V48.2794H35.67ZM39.05 50.2794C39.05 49.4194 38.65 49.0194 37.86 49.0194C37.07 49.0194 36.66 49.4194 36.66 50.2794C36.66 51.1394 37.06 51.6094 37.86 51.6094C38.66 51.6094 39.1 51.1994 39.1 50.3294L39.05 50.2794ZM41.44 52.2094C41.1506 52.1025 40.9139 51.8874 40.78 51.6094L41.44 51.1494C41.5712 51.3228 41.7427 51.4617 41.9396 51.554C42.1364 51.6463 42.3528 51.6894 42.57 51.6794C43.03 51.6794 43.3 51.5394 43.3 51.2094C43.3 50.8794 42.97 50.8094 42.3 50.6094C41.998 50.5164 41.709 50.3853 41.44 50.2194C41.3115 50.1144 41.2087 49.9814 41.1394 49.8307C41.0701 49.6799 41.0361 49.5153 41.04 49.3494C41.0272 49.1678 41.0642 48.9861 41.147 48.824C41.2299 48.6619 41.3554 48.5254 41.51 48.4294C41.8137 48.1974 42.1881 48.0773 42.57 48.0894C42.8686 48.0857 43.1637 48.1543 43.43 48.2894C43.6442 48.4271 43.8451 48.5844 44.03 48.7594L43.43 49.3494C43.3217 49.2282 43.1892 49.1309 43.0411 49.0638C42.8931 48.9966 42.7326 48.9611 42.57 48.9594C42.17 48.9594 41.97 49.0894 41.97 49.3494C41.97 49.5494 42.3 49.7494 42.9 49.8894C43.0474 49.9515 43.2019 49.9952 43.36 50.0194C43.5375 50.0616 43.7 50.1515 43.83 50.2794C43.9731 50.3886 44.089 50.5293 44.1688 50.6906C44.2485 50.8519 44.29 51.0294 44.29 51.2094C44.3023 51.3841 44.2734 51.5593 44.2056 51.7208C44.1379 51.8823 44.0332 52.0257 43.9 52.1394C43.7262 52.2881 43.524 52.4002 43.3058 52.4689C43.0876 52.5376 42.8577 52.5616 42.63 52.5394C42.2192 52.4891 41.8181 52.3778 41.44 52.2094Z" fill="var(--fill-0, black)" style="fill:black;fill-opacity:1;"/>
<g id="Vector_5">
</g>
</g>
<defs>
<clipPath id="clip0_0_17">
<rect width="64" height="64" fill="white" style="fill:white;fill-opacity:1;"/>
</clipPath>
</defs>
</svg>
