<svg preserveAspectRatio="none" width="100%" height="100%" overflow="visible" style="display: block;" viewBox="0 0 55.74 55.74" fill="none" xmlns="http://www.w3.org/2000/svg">
<g id="Group">
<path id="Vector" fill-rule="evenodd" clip-rule="evenodd" d="M53.74 0H2C1.46957 0 0.960859 0.210714 0.585786 0.585786C0.210714 0.960859 0 1.46957 0 2V53.74C0 54.2704 0.210714 54.7791 0.585786 55.1542C0.960859 55.5293 1.46957 55.74 2 55.74H53.74C54.2704 55.74 54.7791 55.5293 55.1542 55.1542C55.5293 54.7791 55.74 54.2704 55.74 53.74V2C55.74 1.46957 55.5293 0.960859 55.1542 0.585786C54.7791 0.210714 54.2704 0 53.74 0ZM2 53.74H53.74V2H2V53.74Z" fill="var(--fill-0, #4A4A4A)" style="fill:#4A4A4A;fill:color(display-p3 0.2904 0.2904 0.2904);fill-opacity:1;"/>
<path id="Vector_2" fill-rule="evenodd" clip-rule="evenodd" d="M0.429993 39.7904H54.32V37.7904H0.429993V39.7904ZM12.25 49.4304C11.8487 49.043 11.5329 48.576 11.3228 48.0594C11.1127 47.5427 11.013 46.9879 11.03 46.4304C11.0219 45.881 11.1243 45.3356 11.3311 44.8265C11.5379 44.3175 11.8449 43.8552 12.2339 43.4672C12.6229 43.0791 13.0859 42.7732 13.5954 42.5676C14.105 42.362 14.6506 42.261 15.2 42.2704C15.8338 42.2332 16.4665 42.361 17.0362 42.6415C17.6058 42.9219 18.093 43.3453 18.45 43.8704L17.45 44.5704C17.2093 44.1893 16.8708 43.8797 16.4698 43.6739C16.0688 43.4681 15.6199 43.3737 15.17 43.4004C14.7837 43.3891 14.3995 43.4599 14.0427 43.6081C13.6858 43.7564 13.3645 43.9787 13.1 44.2604C12.5787 44.8593 12.2916 45.6264 12.2916 46.4204C12.2916 47.2143 12.5787 47.9815 13.1 48.5804C13.3624 48.8654 13.6831 49.0907 14.0403 49.2408C14.3974 49.3909 14.7827 49.4624 15.17 49.4504C15.6662 49.464 16.1569 49.3431 16.59 49.1004C16.991 48.8766 17.3336 48.5614 17.59 48.1804L18.59 48.8504C18.2352 49.413 17.7369 49.8708 17.1463 50.1767C16.5557 50.4825 15.8942 50.6253 15.23 50.5904C14.6845 50.6069 14.1413 50.5117 13.634 50.3105C13.1267 50.1093 12.6659 49.8063 12.28 49.4204M35.43 48.5804C35.9532 47.9825 36.2416 47.2149 36.2416 46.4204C36.2416 45.6258 35.9532 44.8583 35.43 44.2604C35.1693 43.9725 34.8492 43.7447 34.4918 43.5927C34.1344 43.4408 33.7482 43.3683 33.36 43.3804C32.9673 43.3679 32.5766 43.4401 32.2143 43.5919C31.8519 43.7438 31.5265 43.9717 31.26 44.2604C30.7387 44.8593 30.4516 45.6264 30.4516 46.4204C30.4516 47.2143 30.7387 47.9815 31.26 48.5804C31.5286 48.8657 31.8546 49.0908 32.2166 49.2407C32.5786 49.3907 32.9683 49.4622 33.36 49.4504C33.7472 49.4624 34.1325 49.3909 34.4897 49.2408C34.8469 49.0907 35.1676 48.8654 35.43 48.5804ZM30.38 49.4204C29.5981 48.6175 29.1606 47.5411 29.1606 46.4204C29.1606 45.2997 29.5981 44.2233 30.38 43.4204C31.1857 42.6675 32.2473 42.2487 33.35 42.2487C34.4527 42.2487 35.5143 42.6675 36.32 43.4204C37.1019 44.2233 37.5394 45.2997 37.5394 46.4204C37.5394 47.5411 37.1019 48.6175 36.32 49.4204C35.5143 50.1733 34.4527 50.5921 33.35 50.5921C32.2473 50.5921 31.1857 50.1733 30.38 49.4204ZM19.87 42.2904H20.01L23.87 46.8704L27.71 42.3404H27.87V50.5404H26.67V45.1104L26.42 45.4804C26.2774 45.691 26.1203 45.8915 25.95 46.0804L23.87 48.5404H23.77L21.77 46.0804C21.6061 45.8947 21.4558 45.6975 21.32 45.4904L21.05 45.1104V50.4904H19.87V42.2904ZM38.2 48.9204L39.2 48.3404C39.3757 48.6555 39.618 48.9285 39.91 49.1404C40.25 49.3757 40.6568 49.4949 41.07 49.4804C42.01 49.4804 42.47 49.1004 42.47 48.3604C42.474 48.2075 42.4458 48.0555 42.3872 47.9142C42.3287 47.7729 42.241 47.6456 42.13 47.5404C41.8288 47.2963 41.4914 47.1006 41.13 46.9604L40.59 46.7204C40.0659 46.5116 39.5896 46.1986 39.19 45.8004C38.8492 45.3919 38.6712 44.872 38.69 44.3404C38.6838 44.0636 38.7378 43.7888 38.8483 43.535C38.9588 43.2812 39.1232 43.0544 39.33 42.8704C39.7844 42.4702 40.3748 42.259 40.98 42.2804C41.4442 42.2523 41.9067 42.3579 42.3126 42.5848C42.7185 42.8117 43.0508 43.1503 43.27 43.5604L42.27 44.1704C42.1515 43.9282 41.9661 43.7251 41.7357 43.585C41.5053 43.445 41.2395 43.374 40.97 43.3804C40.27 43.3804 39.97 43.7004 39.97 44.3204C39.97 44.9404 40.36 45.2304 41.14 45.5704L41.67 45.8104C42.258 46.0353 42.7951 46.3752 43.25 46.8104C43.6172 47.2376 43.81 47.7874 43.79 48.3504C43.8026 48.6654 43.7423 48.979 43.614 49.2669C43.4857 49.5548 43.2927 49.8092 43.05 50.0104C42.5022 50.4174 41.832 50.6256 41.15 50.6004C40.4871 50.6168 39.8337 50.4396 39.27 50.0904C38.8021 49.8128 38.4238 49.4067 38.18 48.9204H38.2ZM48.26 13.2604H46.52L46.23 16.5004H47.51L48.26 13.2604ZM50.72 13.2604H48.98L48.69 16.5004H49.97L50.72 13.2604ZM8.28999 15.4004H5.74999V13.3504H10.6V28.2004H8.28999V15.4004ZM18.81 12.4004H21L14.66 30.9904H12.48L18.81 12.4004ZM24.81 15.4004H22.29V13.3504H27.14V28.2004H24.87L24.81 15.4004ZM29.96 26.8704C29.9314 26.6672 29.9505 26.46 30.0159 26.2655C30.0813 26.071 30.1912 25.8944 30.3368 25.7497C30.4824 25.6051 30.6598 25.4964 30.8547 25.4323C31.0497 25.3682 31.257 25.3504 31.46 25.3804C31.6623 25.3521 31.8684 25.3712 32.062 25.4361C32.2557 25.5009 32.4317 25.6099 32.5761 25.7543C32.7205 25.8987 32.8294 26.0747 32.8943 26.2684C32.9592 26.462 32.9783 26.6681 32.95 26.8704C32.98 27.0734 32.9622 27.2807 32.8981 27.4756C32.834 27.6706 32.7253 27.8479 32.5807 27.9936C32.436 28.1392 32.2594 28.249 32.0649 28.3145C31.8703 28.3799 31.6632 28.399 31.46 28.3704C31.2564 28.3986 31.049 28.3793 30.8542 28.3139C30.6593 28.2484 30.4823 28.1388 30.3369 27.9934C30.1916 27.8481 30.0819 27.6711 30.0165 27.4762C29.9511 27.2813 29.9318 27.074 29.96 26.8704ZM36.28 27.5204C35.3456 26.9849 34.5985 26.1749 34.14 25.2004L36.14 24.2004C36.4496 24.8043 36.9029 25.3229 37.46 25.7104C38.1068 26.1528 38.8766 26.3802 39.66 26.3604C41.82 26.3604 42.91 25.3604 42.91 23.3604C42.91 21.3604 41.74 20.4304 39.39 20.4304C38.9605 20.4302 38.532 20.4704 38.11 20.5504C37.8196 20.6031 37.535 20.6834 37.26 20.7904L37.15 20.5804L40.57 16.1704C40.7 16.0104 40.87 15.8204 41.07 15.6104L41.34 15.3504H35.45V13.3504H44.95V13.5504L41.65 17.8004C41.4591 18.0533 41.2484 18.2907 41.02 18.5104C40.85 18.6904 40.76 18.7804 40.76 18.7604C41.9535 18.8431 43.0811 19.338 43.95 20.1604C44.3738 20.5819 44.7062 21.0863 44.9265 21.642C45.1467 22.1978 45.25 22.7929 45.23 23.3904C45.2582 24.0843 45.131 24.7758 44.8577 25.4142C44.5843 26.0527 44.1717 26.6219 43.65 27.0804C42.5478 27.9893 41.1471 28.4562 39.72 28.3904C38.5115 28.4087 37.3213 28.0939 36.28 27.4804" fill="var(--fill-0, #4A4A4A)" style="fill:#4A4A4A;fill:color(display-p3 0.2904 0.2904 0.2904);fill-opacity:1;"/>
</g>
</svg>
