<svg preserveAspectRatio="none" width="100%" height="100%" overflow="visible" style="display: block;" viewBox="0 0 64 64" fill="none" xmlns="http://www.w3.org/2000/svg">
<g id="17dab1293cccfde00d5c9661e980e223" clip-path="url(#clip0_0_8)">
<g id="Vector">
</g>
<path id="Vector_2" d="M32 11.16C36.9914 11.1468 41.8227 12.9204 45.62 16.16L47.62 15.22C43.3749 11.3155 37.8177 9.14853 32.05 9.14853C26.2823 9.14853 20.7251 11.3155 16.48 15.22L18.43 16.16C22.2142 12.9316 27.0258 11.1587 32 11.16ZM18.38 48.11L16.43 49.05C20.6698 52.9652 26.229 55.1395 32 55.1395C37.771 55.1395 43.3302 52.9652 47.57 49.05L45.63 48.11C41.8297 51.3502 36.9991 53.13 32.005 53.13C27.0109 53.13 22.1803 51.3502 18.38 48.11ZM54 32.15C54 34.21 52.8 36.15 50.74 37.82L52.74 38.82C53.7202 37.9986 54.517 36.9803 55.0786 35.8313C55.6402 34.6823 55.9541 33.4281 56 32.15C55.9498 30.8785 55.6338 29.6316 55.0723 28.4897C54.5108 27.3478 53.7163 26.3361 52.74 25.52L50.74 26.52C52.8 28.15 54 30.1 54 32.15ZM32 43.15C27.9285 43.177 23.8784 42.5594 20 41.32L17.43 42.56C22.0779 44.3417 27.0228 45.2208 32 45.15C36.9704 45.2182 41.9084 44.3392 46.55 42.56L44 41.32C40.1216 42.5594 36.0715 43.177 32 43.15ZM32 21.15C36.0726 21.1293 40.1228 21.7537 44 23L46.57 21.76C41.9245 19.9679 36.9787 19.0819 32 19.15C27.0286 19.0813 22.0899 19.9638 17.45 21.75L20 23C23.8772 21.7537 27.9274 21.1293 32 21.15ZM10 32.15C10 30.15 11.2 28.15 13.26 26.49L11.26 25.49C10.28 26.3095 9.48337 27.3259 8.92173 28.4733C8.3601 29.6207 8.04606 30.8734 8 32.15C8.05006 33.423 8.36597 34.6714 8.92742 35.8149C9.48887 36.9585 10.2834 37.9719 11.26 38.79L13.26 37.79C11.2 36.16 10 34.21 10 32.15ZM37.27 31.78L27.06 27.53C26.9873 27.5009 26.9077 27.4938 26.831 27.5095C26.7543 27.5252 26.6839 27.5631 26.6285 27.6185C26.5731 27.6739 26.5352 27.7443 26.5195 27.821C26.5038 27.8977 26.5109 27.9773 26.54 28.05L28.16 31.92C28.1995 32.0196 28.1995 32.1304 28.16 32.23L26.52 36.23C26.4909 36.3027 26.4838 36.3823 26.4995 36.459C26.5152 36.5357 26.5531 36.6061 26.6085 36.6615C26.6639 36.7169 26.7343 36.7548 26.811 36.7705C26.8877 36.7862 26.9673 36.7791 27.04 36.75L37.27 32.49C37.335 32.4562 37.3895 32.4053 37.4275 32.3427C37.4656 32.2801 37.4857 32.2082 37.4857 32.135C37.4857 32.0618 37.4656 31.9899 37.4275 31.9273C37.3895 31.8647 37.335 31.8138 37.27 31.78Z" fill="var(--fill-0, #040000)" style="fill:#040000;fill:color(display-p3 0.0157 0.0000 0.0000);fill-opacity:1;"/>
<path id="Vector_3" d="M32 60.1496C26.4639 60.1481 21.0525 58.5054 16.4496 55.4292C11.8468 52.3531 8.25924 47.9815 6.14023 42.867C4.02121 37.7524 3.46591 32.1245 4.54449 26.6945C5.62307 21.2645 8.28712 16.276 12.2 12.3596C17.4566 7.10835 24.5839 4.16032 32.0141 4.16407C35.6932 4.16592 39.3358 4.89241 42.7341 6.30204C46.1324 7.71167 49.2198 9.77684 51.82 12.3796C54.4201 14.9824 56.4822 18.0719 57.8884 21.4716C59.2946 24.8713 60.0174 28.5147 60.0155 32.1938C60.0137 35.8728 59.2872 39.5155 57.8776 42.9138C56.4679 46.3121 54.4028 49.3995 51.8 51.9996C49.2019 54.599 46.1143 56.6577 42.7158 58.0566C39.3172 59.4555 35.6751 60.1669 32 60.1496ZM32 6.14964C26.857 6.14955 21.8295 7.67473 17.5534 10.5323C13.2774 13.3898 9.94483 17.4513 7.97733 22.2031C6.00983 26.9548 5.49577 32.1834 6.50017 37.2273C7.50457 42.2713 9.9823 46.904 13.62 50.5396C16.0203 53.0161 18.8893 54.9902 22.06 56.347C25.2306 57.7039 28.6396 58.4164 32.0883 58.4431C35.537 58.4698 38.9565 57.8101 42.1478 56.5024C45.339 55.1947 48.2382 53.2652 50.6766 50.8262C53.1149 48.3872 55.0436 45.4874 56.3505 42.2958C57.6573 39.1042 58.3161 35.6845 58.2885 32.2358C58.2609 28.7871 57.5474 25.3784 56.1897 22.2081C54.8319 19.0378 52.857 16.1693 50.38 13.7696C47.9722 11.3475 45.108 9.42682 41.9531 8.11886C38.7982 6.81089 35.4153 6.14158 32 6.14964Z" fill="var(--fill-0, #040000)" style="fill:#040000;fill:color(display-p3 0.0157 0.0000 0.0000);fill-opacity:1;"/>
</g>
<defs>
<clipPath id="clip0_0_8">
<rect width="64" height="64" fill="white" style="fill:white;fill-opacity:1;"/>
</clipPath>
</defs>
</svg>
