<svg preserveAspectRatio="none" width="100%" height="100%" overflow="visible" style="display: block;" viewBox="0 0 64 64" fill="none" xmlns="http://www.w3.org/2000/svg">
<g id="cd85cf8d9105b2c948eed60e545c4e78" clip-path="url(#clip0_0_31)">
<g id="Vector">
</g>
<path id="Vector_2" d="M21.37 38.3808C21.5597 38.2178 21.7399 38.0442 21.91 37.8608L25.23 34.3408C25.9474 33.5992 26.572 32.7731 27.09 31.8808C27.5786 31.046 27.8406 30.098 27.85 29.1308C27.8751 28.5321 27.7752 27.9348 27.5565 27.3769C27.3379 26.819 27.0053 26.3129 26.58 25.8908C26.1272 25.4694 25.5953 25.142 25.0151 24.9274C24.435 24.7128 23.818 24.6154 23.2 24.6408C21.9345 24.6024 20.7015 25.0456 19.75 25.8808C18.8744 26.7172 18.2863 27.8094 18.07 29.0008L18.01 29.2408L20.01 29.6808V29.4408C20.43 27.5508 21.45 26.6408 23.13 26.6408C23.7081 26.5454 24.3005 26.6836 24.7768 27.0249C25.2531 27.3662 25.5744 27.8827 25.67 28.4608C25.7101 28.6991 25.7101 28.9425 25.67 29.1808C25.6593 29.8833 25.4701 30.5716 25.12 31.1808C24.6897 31.9128 24.1652 32.5852 23.56 33.1808L17.36 39.7708V40.2708H27.94V38.3608H22L21.37 38.3808ZM38.82 24.4608H38.32L28.49 36.3408V37.5008H36.71V40.2708H38.82V37.5008H40.49V35.6608H38.82V24.4608ZM31.47 35.6908C31.6791 35.5034 31.8761 35.303 32.06 35.0908L36.65 29.2408L36.73 29.1308V35.6608H32.35L31.47 35.6908ZM51.87 31.9008C52.1035 31.294 52.2287 30.6509 52.24 30.0008C52.2536 29.2965 52.121 28.5969 51.8508 27.9464C51.5806 27.2958 51.1786 26.7082 50.67 26.2208C50.1408 25.7081 49.5141 25.3068 48.827 25.0405C48.14 24.7743 47.4065 24.6486 46.67 24.6708C45.9322 24.6447 45.1968 24.7696 44.5089 25.0378C43.8211 25.3061 43.1953 25.712 42.67 26.2308C41.6948 27.2415 41.1441 28.5875 41.1311 29.9918C41.118 31.3962 41.6437 32.7522 42.6 33.7808C43.0815 34.2807 43.6618 34.675 44.3039 34.9384C44.9461 35.2018 45.6361 35.3286 46.33 35.3108C46.7794 35.3051 47.2251 35.2274 47.65 35.0808C47.5812 35.1574 47.5209 35.2413 47.47 35.3308L44.1 40.3308H46.47L50.89 33.7608C51.2925 33.1838 51.6217 32.559 51.87 31.9008ZM46.67 26.5608C47.1384 26.5393 47.606 26.6174 48.0421 26.7897C48.4782 26.9621 48.8728 27.2249 49.2 27.5608C49.8098 28.209 50.1402 29.071 50.12 29.9608C50.1463 30.8743 49.8123 31.7615 49.19 32.4308C48.8639 32.7654 48.471 33.0274 48.0367 33.1997C47.6025 33.3721 47.1367 33.4508 46.67 33.4308C46.2008 33.4595 45.731 33.3848 45.2938 33.2121C44.8566 33.0393 44.4628 32.7725 44.14 32.4308C43.5554 31.7586 43.2448 30.8912 43.27 30.0008C43.2422 29.1135 43.5656 28.251 44.17 27.6008C44.4866 27.2568 44.8741 26.9857 45.3058 26.8062C45.7374 26.6266 46.2028 26.5429 46.67 26.5608ZM56.47 33.4608C56.3146 33.1771 56.0816 32.9436 55.7982 32.7877C55.5148 32.6318 55.1928 32.5601 54.87 32.5808C54.5728 32.5773 54.2786 32.6402 54.0087 32.7647C53.7389 32.8893 53.5002 33.0724 53.31 33.3008C52.884 33.8329 52.6519 34.4942 52.6519 35.1758C52.6519 35.8574 52.884 36.5187 53.31 37.0508C53.5012 37.2805 53.7416 37.4644 54.0133 37.589C54.285 37.7136 54.5811 37.7757 54.88 37.7708C55.1847 37.8021 55.4921 37.7464 55.7664 37.6101C56.0408 37.4738 56.2709 37.2625 56.43 37.0008V37.5908C56.43 38.4808 56.04 38.9308 55.26 38.9308C54.956 38.9325 54.6566 38.8568 54.39 38.7108C54.1603 38.5628 53.9574 38.3768 53.79 38.1608L52.69 39.0208C52.9455 39.3947 53.2889 39.7003 53.69 39.9108C54.1903 40.144 54.7382 40.257 55.29 40.2408C55.9678 40.2812 56.6368 40.0712 57.17 39.6508C57.4439 39.3985 57.6573 39.0876 57.7941 38.7413C57.9309 38.3949 57.9876 38.0221 57.96 37.6508V32.6508H56.43L56.47 33.4608ZM55.35 36.3808C54.63 36.3808 54.27 35.9708 54.27 35.1608C54.27 34.3508 54.63 34.0008 55.35 34.0008C56.07 34.0008 56.47 34.3908 56.47 35.1908C56.47 35.9908 56.09 36.3808 55.35 36.3808ZM14.26 28.6008L6.41999 33.1508L14.26 37.7108V35.4508L10.3 33.1508L14.26 30.8608V28.6008ZM5.99999 7.86078V15.2908H7.85999V7.86078H15.29V6.05078H7.85999C7.37523 6.05061 6.90955 6.23969 6.56214 6.57777C6.21472 6.91584 6.01302 7.3762 5.99999 7.86078ZM56.14 6.05078H48.71V7.86078H56.14V15.2908H58V7.86078C57.987 7.3762 57.7853 6.91584 57.4378 6.57777C57.0904 6.23969 56.6247 6.05061 56.14 6.05078ZM7.85999 48.7108H5.99999V56.1408C5.99333 56.3851 6.03488 56.6283 6.12226 56.8565C6.20963 57.0847 6.34112 57.2935 6.50921 57.4708C6.6773 57.6482 6.8787 57.7907 7.10189 57.8902C7.32509 57.9897 7.5657 58.0443 7.80999 58.0508H15.29V56.1408H7.85999V48.7108ZM56.14 56.1408H48.71V58.0508H56.14C56.6333 58.0508 57.1064 57.8548 57.4552 57.506C57.804 57.1572 58 56.6841 58 56.1908V48.7108H56.14V56.1408Z" fill="var(--fill-0, black)" style="fill:black;fill-opacity:1;"/>
</g>
<defs>
<clipPath id="clip0_0_31">
<rect width="64" height="64" fill="white" style="fill:white;fill-opacity:1;"/>
</clipPath>
</defs>
</svg>
