<svg preserveAspectRatio="none" width="100%" height="100%" overflow="visible" style="display: block;" viewBox="0 0 64 64" fill="none" xmlns="http://www.w3.org/2000/svg">
<g id="d49d336a6fca6b73f0a7e7cd8426909a">
<path id="Vector" d="M11.86 9.59L14.43 12.69C14.92 12.24 15.43 11.82 15.96 11.41L13.39 8.3L11.86 9.59ZM6 31.69V30.69H2V32.69H6C6.01 32.36 6 32.03 6 31.69ZM23.86 7.2L22.49 3.45L20.62 4.13L21.98 7.89C22.6 7.63 23.22 7.4 23.86 7.2ZM12.71 14.41L9.61 11.84L8.32 13.37L11.39 15.94C11.8 15.42 12.22 14.9 12.71 14.41ZM19.71 8.94L17.71 5.48L15.98 6.48L17.98 9.94C18.56 9.59 19.14 9.25 19.71 8.94ZM9.96 17.98L6.5 15.98L5.5 17.69L8.96 19.69C9.27 19.12 9.61 18.54 9.96 17.98ZM7.91 21.96L4.15 20.6L3.47 22.47L7.22 23.84C7.42 23.2 7.65 22.58 7.91 21.96ZM25.57 2.62L26.26 6.56C26.91 6.42 27.57 6.31 28.26 6.22L27.57 2.27L25.57 2.62ZM6.58 26.24L2.64 25.55L2.29 27.55L6.29 28.24C6.33 27.55 6.44 26.89 6.58 26.24ZM52.03 15.94L55.1 13.37L53.81 11.84L50.71 14.41C51.2 14.9 51.62 15.42 52.03 15.94ZM56.2 23.84L59.95 22.47L59.27 20.6L55.51 21.96C55.77 22.58 56 23.2 56.2 23.84ZM51.56 9.59L50.03 8.3L47.46 11.37C47.98 11.78 48.46 12.2 48.99 12.65L51.56 9.59ZM57.18 28.21L61.18 27.52L60.83 25.52L56.89 26.21C56.98 26.89 57.09 27.55 57.18 28.21ZM39.56 7.2C40.2 7.4 40.82 7.63 41.44 7.89L42.8 4.13L40.93 3.45L39.56 7.2ZM37.85 2.62L35.85 2.27L35.16 6.27C35.82 6.36 36.48 6.47 37.16 6.61L37.85 2.62ZM32.71 6V2H30.71V6H31.71H32.71ZM47.42 6.48L45.71 5.48L43.71 8.94C44.3 9.25 44.88 9.59 45.44 9.94L47.42 6.48ZM54.46 19.69L57.92 17.69L56.92 15.96L53.46 17.96C53.81 18.54 54.15 19.12 54.46 19.69ZM47.46 52.01L50.03 55.08L51.56 53.79L48.99 50.69C48.5 51.18 47.98 51.6 47.46 52.01ZM43.71 54.44L45.71 57.9L47.44 56.9L45.44 53.44C44.86 53.79 44.28 54.13 43.71 54.44ZM39.56 56.18L40.93 59.93L42.8 59.25L41.44 55.49C40.82 55.75 40.2 55.98 39.56 56.18ZM50.71 48.97L53.77 51.54L55.06 50.01L51.99 47.44C51.62 47.96 51.2 48.48 50.71 48.97ZM56.84 37.14L60.78 37.83L61.13 35.83L57.13 35.14C57.09 35.83 56.98 36.49 56.84 37.14ZM35.19 57.16L35.88 61.16L37.88 60.81L37.19 56.87C36.51 56.96 35.85 57.07 35.19 57.16ZM57.4 30.69V32.69H61.4V30.69H57.4ZM53.46 45.4L56.92 47.4L57.92 45.67L54.46 43.67C54.15 44.26 53.81 44.84 53.46 45.4ZM55.51 41.42L59.27 42.78L59.95 40.91L56.2 39.54C56 40.18 55.77 40.8 55.51 41.42ZM30.71 57.38V61.38H32.71V57.38H31.71H30.71ZM8.96 43.69L5.5 45.69L6.5 47.42L9.96 45.42C9.61 44.84 9.27 44.26 8.96 43.69ZM11.39 47.44L8.32 50.01L9.61 51.54L12.71 48.97C12.22 48.48 11.8 47.96 11.39 47.44ZM6.24 35.17L2.29 35.86L2.64 37.86L6.58 37.17C6.44 36.49 6.33 35.83 6.24 35.17ZM11.86 53.79L13.39 55.08L15.96 52.01C15.44 51.6 14.96 51.18 14.43 50.73L11.86 53.79ZM7.22 39.54L3.47 40.91L4.15 42.78L7.91 41.42C7.65 40.8 7.42 40.18 7.22 39.54ZM16 56.9L17.73 57.9L19.73 54.44C19.14 54.13 18.56 53.79 18 53.44L16 56.9ZM25.57 60.76L27.57 61.11L28.26 57.11C27.6 57.02 26.94 56.91 26.26 56.77L25.57 60.76ZM20.62 59.25L22.49 59.93L23.86 56.18C23.22 55.98 22.6 55.75 21.98 55.49L20.62 59.25ZM15.7 37.13V24.89H11.7V26.58H13.79V37.13H15.7ZM18.02 28.21C17.4466 30.0326 17.4466 31.9874 18.02 33.81C18.2582 34.5502 18.6501 35.2318 19.17 35.81C20.0835 36.7877 21.3725 37.3266 22.71 37.29C24.0609 37.3235 25.3599 36.7689 26.27 35.77C26.7899 35.1918 27.1818 34.5102 27.42 33.77C27.9934 31.9474 27.9934 29.9926 27.42 28.17C27.1818 27.4298 26.7899 26.7482 26.27 26.17C25.3549 25.1826 24.0554 24.6423 22.71 24.69C21.3551 24.6509 20.0509 25.2062 19.14 26.21C18.6308 26.791 18.2493 27.4723 18.02 28.21ZM20.49 27.51C21.0279 26.8157 21.8567 26.4094 22.735 26.4094C23.6133 26.4094 24.4421 26.8157 24.98 27.51C25.6614 28.5445 25.9846 29.7741 25.9 31.01C25.9831 32.2458 25.6601 33.4748 24.98 34.51C24.4376 35.1972 23.6104 35.5981 22.735 35.5981C21.8596 35.5981 21.0324 35.1972 20.49 34.51C19.8099 33.4748 19.4869 32.2458 19.57 31.01C19.4854 29.7741 19.8086 28.5445 20.49 27.51ZM28.95 32.05H32.75V33.69H28.95V32.05ZM42.19 33.33C42.2284 32.2939 41.8708 31.282 41.19 30.5C40.5649 29.7871 39.658 29.3849 38.71 29.4C37.6221 29.3482 36.6003 29.9232 36.08 30.88V25.69H34.21V37.13H36.05L36 35.76C36.4841 36.762 37.5299 37.3681 38.64 37.29C39.5979 37.3046 40.5132 36.8946 41.14 36.17C41.8431 35.3941 42.2193 34.3766 42.19 33.33ZM38.19 35.69C36.72 35.69 35.99 34.9 35.99 33.33C35.99 31.76 36.72 31.03 38.19 31.03C39.66 31.03 40.32 31.8 40.32 33.33C40.32 34.86 39.6 35.69 38.18 35.69H38.19ZM44.65 28.12C44.9826 28.1683 45.3183 28.056 45.5549 27.8174C45.7916 27.5788 45.901 27.2421 45.85 26.91C45.7932 26.2869 45.2707 25.8099 44.645 25.8099C44.0193 25.8099 43.4968 26.2869 43.44 26.91C43.3926 27.2432 43.5048 27.5793 43.7427 27.8173C43.9807 28.0552 44.3168 28.1674 44.65 28.12ZM43.73 29.57H45.57V37.13H43.73V29.57ZM48.71 36.69C49.1509 37.1135 49.75 37.3314 50.36 37.29C50.7805 37.299 51.1987 37.2242 51.59 37.07C51.8546 36.9408 52.1002 36.7759 52.32 36.58L51.57 35.33L51.41 35.47C51.349 35.5187 51.2817 35.5591 51.21 35.59C51.0274 35.6832 50.825 35.7313 50.62 35.73C50.12 35.73 49.86 35.35 49.86 34.6V31.1H51.86V29.57H49.86V26.69H48.04V29.61H46.91V31.14H48.04V34.61C47.9939 35.3629 48.2331 36.1056 48.71 36.69Z" fill="var(--fill-0, black)" style="fill:black;fill-opacity:1;"/>
</g>
</svg>
