<svg preserveAspectRatio="none" width="100%" height="100%" overflow="visible" style="display: block;" viewBox="0 0 63 36" fill="none" xmlns="http://www.w3.org/2000/svg">
<g id="&#235;&#147;&#156;&#235;&#161;&#160;&#235;&#184;&#140;&#235;&#158;&#156;&#235;&#147;&#156; &#235;&#161;&#156;&#234;&#179;&#160; 1" clip-path="url(#clip0_0_11)">
<path id="Vector" fill-rule="evenodd" clip-rule="evenodd" d="M48.8226 7.32203C47.7675 11.2427 46.7171 15.1645 45.6882 19.0922C45.1736 21.0558 44.6685 23.0207 44.0761 24.9636C43.5007 26.8513 42.7939 28.8662 41.7639 30.5807C40.6895 32.3699 39.2983 33.767 37.3729 34.6615C36.6031 35.0188 35.8143 35.264 34.9868 35.4394C33.8126 35.6882 32.633 35.7905 31.4398 35.858C28.485 36.0246 22.2167 35.9997 19.2627 35.9997L21.0737 29.2879C22.4446 29.2879 23.8152 29.2927 25.1857 29.2547C26.5084 29.2179 27.9637 29.1471 29.2663 28.8392C30.6926 28.5017 31.769 27.9226 32.7117 26.7621C33.5705 25.705 34.1478 24.386 34.6209 23.1421C35.4849 20.8703 36.3697 17.6176 36.9933 15.2783C37.6987 12.6303 38.3767 9.97562 39.0601 7.32203H48.8226ZM61.0259 7.32198L55.7578 26.8474H45.9955L51.2634 7.32198H61.0259ZM28.8318 0H38.5943C37.5716 3.81137 36.5502 7.62301 35.5157 11.4313C34.7947 14.0843 34.0787 16.7385 33.2961 19.3745C32.9547 20.5236 32.6138 21.6694 32.1665 22.7851C31.8069 23.6812 31.405 24.4786 30.662 25.1483C30.107 25.6484 29.5017 25.9594 28.7969 26.1811C27.8902 26.4665 26.9736 26.5711 26.0368 26.6478C24.6893 26.7582 23.3416 26.7864 21.992 26.8081C18.8879 26.8581 13.2511 26.8511 10.147 26.8377C9.03164 26.8327 7.91626 26.826 6.80088 26.8056C5.99231 26.7911 5.18457 26.771 4.37711 26.7206C3.83797 26.6865 3.30301 26.6413 2.77029 26.5432C2.40882 26.4768 2.06073 26.3875 1.72157 26.2394C0.604518 25.7513 0.0352539 24.7757 0.00206313 23.5875C-0.0171819 22.9075 0.101078 22.2599 0.237188 21.6022C0.430476 20.6706 0.671179 19.7519 0.909651 18.832C1.36484 17.0746 2.19796 13.8319 2.84727 12.125C3.35601 10.7873 4.02791 9.45603 5.3045 8.60925C6.01825 8.13593 6.76825 7.88435 7.59523 7.71784C8.20828 7.59456 8.8244 7.52929 9.4461 7.48299C10.4873 7.40573 11.5293 7.38147 12.5725 7.36306C14.0549 7.33712 15.5373 7.33154 17.0197 7.32708L20.7177 7.32206H24.4154L23.0984 12.2033C20.9006 12.2033 18.7033 12.1972 16.5054 12.21C15.8639 12.2139 15.2233 12.2092 14.5823 12.251C14.3547 12.2658 14.1324 12.2806 13.9124 12.3576C13.6228 12.458 13.4798 12.6398 13.3526 12.9009C13.1665 13.283 13.0592 13.6861 12.9406 14.0894C12.7596 14.7052 12.592 15.3247 12.4241 15.9444C12.1655 16.8991 11.907 17.8539 11.6615 18.8122C11.5709 19.167 11.4819 19.5218 11.4055 19.8799C11.3516 20.1309 11.3031 20.3811 11.2791 20.6372C11.2529 20.9172 11.2448 21.2536 11.4144 21.5135C11.5868 21.7774 11.8782 21.8387 12.1502 21.878C12.4575 21.923 12.7655 21.9327 13.0745 21.9419C13.5805 21.9573 14.0864 21.9595 14.5924 21.962C15.9766 21.9687 17.3609 21.969 18.7451 21.9603C19.383 21.9564 20.0203 21.952 20.6576 21.9263C21.0966 21.9087 21.5301 21.8937 21.9624 21.7891C22.2909 21.7096 22.5478 21.5846 22.7701 21.316C22.9205 21.1342 23.0186 20.9325 23.1084 20.7183C23.3316 20.1873 23.4875 19.6375 23.6501 19.0881C24.274 16.9803 24.836 14.8564 25.4103 12.735L27.1254 6.36873L28.8318 0Z" fill="var(--fill-0, #111111)" style="fill:#111111;fill:color(display-p3 0.0667 0.0667 0.0667);fill-opacity:1;"/>
</g>
<defs>
<clipPath id="clip0_0_11">
<rect width="63" height="36" fill="white" style="fill:white;fill-opacity:1;"/>
</clipPath>
</defs>
</svg>
