<svg preserveAspectRatio="none" width="100%" height="100%" overflow="visible" style="display: block;" viewBox="0 0 229.322 132" fill="none" xmlns="http://www.w3.org/2000/svg">
<g id="&#235;&#147;&#156;&#235;&#161;&#160;&#235;&#184;&#140;&#235;&#158;&#156;&#235;&#147;&#156; &#235;&#161;&#156;&#234;&#179;&#160; 2" clip-path="url(#clip0_0_20)">
<path id="Vector" fill-rule="evenodd" clip-rule="evenodd" d="M177.716 26.8475C173.875 41.2234 170.052 55.6033 166.306 70.0048C164.433 77.2045 162.595 84.4093 160.438 91.5334C158.344 98.4549 155.771 105.843 152.022 112.129C148.111 118.69 143.047 123.812 136.039 127.092C133.236 128.402 130.365 129.301 127.353 129.944C123.079 130.857 118.785 131.232 114.442 131.479C103.686 132.09 80.8695 131.999 70.1169 131.999L76.709 107.389C81.6989 107.389 86.6879 107.406 91.6769 107.267C96.4912 107.132 101.789 106.873 106.53 105.744C111.722 104.506 115.64 102.383 119.072 98.1276C122.198 94.2517 124.299 89.4154 126.021 84.8542C129.166 76.5244 132.387 64.5979 134.657 56.0206C137.224 46.3112 139.692 36.5773 142.18 26.8475H177.716ZM222.136 26.8472L202.96 98.4404H167.425L186.6 26.8472H222.136ZM104.949 0H140.485C136.762 13.975 133.044 27.951 129.278 41.9148C126.654 51.6426 124.048 61.3745 121.199 71.0399C119.956 75.2533 118.715 79.4545 117.087 83.5453C115.778 86.8312 114.315 89.755 111.611 92.2105C109.59 94.0442 107.387 95.1845 104.822 95.9975C101.521 97.0437 98.1849 97.4272 94.7746 97.7085C89.8699 98.1134 84.9642 98.2167 80.0514 98.2965C68.7526 98.4796 48.2343 98.454 36.9355 98.4049C32.8754 98.3865 28.8154 98.3619 24.7554 98.2873C21.8122 98.2341 18.872 98.1605 15.9328 97.9754C13.9703 97.8506 12.0231 97.6849 10.0839 97.3249C8.76816 97.0815 7.50112 96.7543 6.26657 96.2112C2.20047 94.4215 0.128325 90.8442 0.00750986 86.4875C-0.0625425 83.9942 0.367926 81.6196 0.863372 79.2081C1.56695 75.7923 2.44311 72.4236 3.31116 69.0507C4.96806 62.6068 8.00063 50.717 10.3641 44.4582C12.216 39.5534 14.6617 34.6721 19.3086 31.5673C21.9066 29.8318 24.6366 28.9093 27.6469 28.2987C29.8784 27.8467 32.1211 27.6074 34.3841 27.4376C38.1741 27.1544 41.9671 27.0654 45.7641 26.9979C51.1602 26.9028 56.5563 26.8823 61.9524 26.866L75.4131 26.8476H88.873L84.0789 44.7456C76.0787 44.7456 68.0805 44.7231 60.0803 44.7701C57.7452 44.7844 55.4131 44.7671 53.0801 44.9205C52.2516 44.9747 51.4425 45.0289 50.6414 45.3111C49.5876 45.6793 49.0668 46.3461 48.6038 47.3033C47.9266 48.7044 47.5358 50.1822 47.1043 51.661C46.4454 53.9191 45.8352 56.1905 45.224 58.4629C44.2829 61.9635 43.3417 65.4642 42.4483 68.9781C42.1183 70.279 41.7945 71.5798 41.5163 72.893C41.3204 73.8134 41.1437 74.7307 41.0564 75.6696C40.9609 76.6963 40.9315 77.9297 41.5488 78.8828C42.1762 79.8503 43.2372 80.0753 44.227 80.2195C45.3458 80.3842 46.4667 80.4199 47.5916 80.4537C49.4333 80.5099 51.2749 80.5181 53.1166 80.5273C58.1553 80.5519 63.1941 80.5529 68.2328 80.5212C70.5547 80.5069 72.8745 80.4905 75.1944 80.3964C76.7924 80.332 78.3701 80.2768 79.9438 79.8933C81.1398 79.6018 82.0748 79.1436 82.884 78.1588C83.4312 77.492 83.7886 76.7526 84.1155 75.9672C84.9277 74.02 85.4952 72.0043 86.0871 69.9896C88.3582 62.2611 90.404 54.4734 92.4944 46.6948L98.7375 23.352L104.949 0Z" fill="var(--fill-0, white)" style="fill:white;fill-opacity:1;"/>
</g>
<defs>
<clipPath id="clip0_0_20">
<rect width="229.322" height="132" fill="white" style="fill:white;fill-opacity:1;"/>
</clipPath>
</defs>
</svg>
